<svg width="300" height="300" viewBox="0 0 300 300" fill="none" xmlns="http://www.w3.org/2000/svg">
  <defs>
    <linearGradient id="ring" x1="20%" y1="0%" x2="80%" y2="100%">
      <stop offset="0%" stop-color="#361F42"/>
      <stop offset="50%" stop-color="#5A2C68"/>
      <stop offset="100%" stop-color="#A7538A"/>
    </linearGradient>
    <linearGradient id="wave1" x1="0%" y1="50%" x2="100%" y2="100%">
      <stop offset="0%" stop-color="#F0E0D9"/>
      <stop offset="40%" stop-color="#E4BAAE"/>
      <stop offset="100%" stop-color="#A7538A"/>
    </linearGradient>
    <linearGradient id="wave2" x1="0%" y1="100%" x2="100%" y2="0%">
      <stop offset="0%" stop-color="#F0E0D9"/>
      <stop offset="100%" stop-color="#5A2C68"/>
    </linearGradient>
    <filter id="shadow" x="-20%" y="-20%" width="140%" height="140%">
      <feDropShadow dx="2" dy="8" stdDeviation="6" flood-color="#000000" flood-opacity="0.4"/>
    </filter>
  </defs>

  <!-- Main Ring -->
  <path d="M150 25C81 25 25 81 25 150C25 219 81 275 150 275C219 275 275 219 275 150C275 81 219 25 150 25ZM150 215C114.1 215 85 185.9 85 150C85 114.1 114.1 85 150 85C185.9 85 215 114.1 215 150C215 185.9 185.9 215 150 215Z" fill="url(#ring)"/>

  <!-- Lower Swoop / Tail -->
  <path d="M 80 180 C 100 150 160 190 200 230 C 240 270 290 250 290 210 C 280 270 230 300 180 290 C 130 280 90 240 80 180 Z" fill="url(#wave1)" filter="url(#shadow)"/>
  
  <!-- Inner Swoop Highlight -->
  <path d="M 110 210 C 130 190 170 220 200 250 C 230 280 260 260 270 230 C 250 280 200 300 160 280 C 130 265 115 240 110 210 Z" fill="url(#wave2)"/>
</svg>
